<svg width="10" height="10" viewBox="0 0 10 10" fill="none" xmlns="http://www.w3.org/2000/svg">
<path fill-rule="evenodd" clip-rule="evenodd" d="M4.54545 0H5.45455V2.72727H4.54545V0ZM3.71364 3.07273L2.75 2.10909L2.10909 2.75L3.07273 3.71364L3.71364 3.07273ZM2.72727 4.54545H0V5.45455H2.72727V4.54545ZM7.89091 2.75L7.25 2.10909L6.28636 3.07273L6.92727 3.71364L7.89091 2.75ZM7.27273 4.54545H10V5.45455H7.27273V4.54545ZM5 3.63636C4.24688 3.63636 3.63636 4.24688 3.63636 5C3.63636 5.75312 4.24688 6.36364 5 6.36364C5.75312 6.36364 6.36364 5.75312 6.36364 5C6.36364 4.24688 5.75312 3.63636 5 3.63636ZM7.25 7.89091L6.28636 6.92727L6.92727 6.28636L7.89091 7.25L7.25 7.89091ZM2.10909 7.25L2.75 7.89091L3.71364 6.92727L3.07273 6.28636L2.10909 7.25ZM5.45455 7.27273V10H4.54545V7.27273H5.45455Z" fill="#007FE8"/>
</svg>
