<svg width="14" height="14" viewBox="0 0 14 14" fill="none" xmlns="http://www.w3.org/2000/svg">
<g id="translate_icon_blue">
<path id="Fill 1" fill-rule="evenodd" clip-rule="evenodd" d="M11.4209 0H11.4144H11.4112C6.55847 0.0155891 2.44216 1.48144 1.92687 1.67229C1.91491 1.67647 1.90322 1.68066 1.89166 1.68518C1.18789 1.93447 0.680548 2.41625 0.451937 3.04947C0.435974 3.08854 0.422047 3.12876 0.410485 3.17027C0.374945 3.29727 -0.448579 6.3134 0.341442 10.0965C0.479199 11.0708 1.20432 11.8334 2.12132 12.0254L2.85182 13.3139C3.01389 13.7287 3.39576 14 3.83202 14C4.02004 14 4.37727 13.9461 4.66212 13.5863L5.52046 12.6325L6.14401 11.9806L11.6262 10.8222C11.6658 10.8139 11.7048 10.8032 11.7432 10.7903C12.1485 10.6531 13.3657 10.2414 13.6244 9.00202C13.6263 8.99453 13.6281 8.98704 13.6297 8.97955C14.4196 5.42246 13.7129 2.2256 13.6297 1.87272C13.6291 1.87029 13.6285 1.8678 13.6279 1.8653C13.5978 1.74133 13.5729 1.64455 13.554 1.57774C13.544 1.54285 13.5325 1.50857 13.5192 1.47483L13.5172 1.46963C13.5095 1.44729 13.5011 1.42523 13.4919 1.4035C13.1367 0.554866 12.3256 0.00398164 11.4254 0H11.4209ZM11.4209 1.07977C11.9167 1.08193 12.3425 1.39081 12.5264 1.83007C12.5318 1.84647 12.5383 1.86294 12.5447 1.8794C12.5586 1.92867 12.5801 2.01188 12.6081 2.12694C12.8049 2.96167 13.2642 5.77082 12.6049 8.73937L12.6038 8.73822C12.5103 9.27939 12.0328 9.55547 11.4144 9.76461L5.60264 10.9926C5.59403 11.0101 5.58326 11.0254 5.56927 11.0408L4.75947 11.8876L3.88405 12.8602C3.84766 12.9007 3.83735 12.9202 3.83202 12.9202C3.82526 12.9202 3.82664 12.8886 3.79294 12.8285L2.75841 11.0036C2.75631 10.9992 2.75519 10.9959 2.75407 10.9926H2.57559C1.95827 10.9926 1.44856 10.5194 1.37755 9.91038C0.619388 6.32946 1.42058 3.46875 1.42058 3.46875L1.42163 3.47206C1.5356 3.10406 1.82597 2.84769 2.24541 2.70205C2.24541 2.70205 2.24975 2.7009 2.25724 2.69766C2.26157 2.69544 2.2669 2.69436 2.27228 2.6922C2.6401 2.5552 6.66969 1.09509 11.4144 1.07977H11.4209Z" fill="#1A1B41"/>
<path id="Fill 3" fill-rule="evenodd" clip-rule="evenodd" d="M7.4124 7.7709C7.00411 7.7709 6.60873 7.62038 6.29639 7.34994L5.94424 7.04149L5.67054 7.42454C5.51384 7.64488 5.2728 7.7709 5.01077 7.7709C4.558 7.7709 4.18959 7.39153 4.18959 6.92648C4.18959 6.40143 4.6575 5.9842 5.18629 6.10281L5.63774 6.2044L5.70569 5.73444C5.82848 4.87168 6.5619 4.22061 7.4124 4.22061C7.97739 4.22061 8.47928 4.50088 8.79392 4.9341V4.93527C9.0103 5.23029 9.13787 5.59742 9.13787 5.99513C9.13787 6.03672 9.13669 6.07714 9.13315 6.11748C9.07234 7.03907 8.3237 7.7709 7.4124 7.7709ZM9.43965 4.34303C8.96701 3.72746 8.23595 3.33334 7.4147 3.33334C6.25776 3.33334 5.2787 4.11784 4.94872 5.19846C4.05152 5.23396 3.33331 5.99389 3.33331 6.92765C3.33331 7.88225 4.08543 8.65699 5.01313 8.65699C5.41205 8.65699 5.77817 8.51374 6.06598 8.27512C6.45899 8.52356 6.92107 8.66668 7.4147 8.66668C8.59977 8.66668 9.59759 7.84557 9.90291 6.72454C9.96607 6.49451 9.99998 6.25091 9.99998 6.00004C9.99998 5.37472 9.79062 4.79832 9.43965 4.34303Z" fill="#1A1B41"/>
</g>
</svg>
