<svg width="22" height="22" viewBox="0 0 22 22" fill="none" xmlns="http://www.w3.org/2000/svg">
<path d="M17.2435 9.98149H4.53776C3.53531 9.98149 2.72266 10.794 2.72266 11.7963V18.1482C2.72266 19.1505 3.53531 19.963 4.53776 19.963H17.2435C18.2459 19.963 19.0586 19.1505 19.0586 18.1482V11.7963C19.0586 10.794 18.2459 9.98149 17.2435 9.98149Z" stroke="white" stroke-linecap="round" stroke-linejoin="round"/>
<path d="M6.35291 9.98149V6.35186C6.35291 5.14856 6.83099 3.99455 7.68198 3.14369C8.53298 2.29283 9.68718 1.81482 10.8907 1.81482C12.0942 1.81482 13.2484 2.29283 14.0993 3.14369C14.9503 3.99455 15.4284 5.14856 15.4284 6.35186V9.98149" stroke="white" stroke-linecap="round" stroke-linejoin="round"/>
</svg>
